<?xml version="1.0" encoding="UTF-8"?>
<svg width="48px" height="48px" viewBox="0 0 48 48" version="1.1" xmlns="http://www.w3.org/2000/svg" xmlns:xlink="http://www.w3.org/1999/xlink">
    <title>账号</title>
    <defs>
        <rect id="path-1" x="0" y="0" width="48" height="48"></rect>
    </defs>
    <g id="木林森PDA" stroke="none" stroke-width="1" fill="none" fill-rule="evenodd">
        <g id="配送作业" transform="translate(-642.000000, -73.000000)">
            <g id="账号" transform="translate(642.000000, 73.000000)">
                <mask id="mask-2" fill="white">
                    <use xlink:href="#path-1"></use>
                </mask>
                <g id="矩形"></g>
                <g id="编组" mask="url(#mask-2)" fill="#FFFFFF" fill-rule="nonzero">
                    <g transform="translate(4.000000, 2.000000)" id="形状结合">
                        <path d="M24.3366988,24.7443778 C32.5001171,24.7443778 39.1118113,31.2436282 39.1118113,39.2721139 L39.1118113,40.2166417 C39.1118113,43.3875562 32.5001171,43.5 24.3366988,43.5 L14.8014664,43.5 L14.419962,43.4999875 L14.419962,43.4999875 L13.2902451,43.4991984 C5.83741333,43.4871744 0.0263540039,43.2947901 0.0263540039,40.2166417 L0.0263540039,39.2721139 C0.0263540039,31.2436282 6.63804817,24.7443778 14.8014664,24.7443778 L24.3366988,24.7443778 Z M19.0968188,8.8817842e-15 C25.4161591,8.8817842e-15 30.5211067,5.03748127 30.5211067,11.2443778 C30.5211067,17.3542916 25.5526509,22.3310488 19.3911121,22.4850808 L19.0968188,22.4887556 L19.0968188,22.4887556 C12.7774785,22.4887556 7.67245724,17.4512744 7.67245724,11.2443778 C7.65004219,5.03748127 12.7774785,8.8817842e-15 19.0968188,8.8817842e-15 Z"></path>
                    </g>
                </g>
            </g>
        </g>
    </g>
</svg>