<?xml version="1.0" encoding="UTF-8"?>
<svg width="151px" height="150px" viewBox="0 0 151 150" version="1.1" xmlns="http://www.w3.org/2000/svg" xmlns:xlink="http://www.w3.org/1999/xlink">
    <title>散货上架</title>
    <defs>
        <linearGradient x1="4.25232718%" y1="6.07257208%" x2="99.6659894%" y2="95.8505766%" id="linearGradient-1">
            <stop stop-color="#FFFFFF" offset="0%"></stop>
            <stop stop-color="#FFF8EB" offset="100%"></stop>
        </linearGradient>
    </defs>
    <g id="WMS标准版pda" stroke="none" stroke-width="1" fill="none" fill-rule="evenodd">
        <g id="上架" transform="translate(-148.000000, -472.000000)">
            <g id="散货上架" transform="translate(148.500000, 472.000000)">
                <circle id="椭圆形备份" fill="#FFB725" cx="75" cy="75" r="75"></circle>
                <g id="编组-2" transform="translate(29.000000, 29.000000)" fill="url(#linearGradient-1)">
                    <path d="M41.9133739,73.9792268 L41.9133739,79.8005034 L21.2963526,91.6856098 L12.8416413,86.834546 L0.679331307,79.8351539 L0.679331307,74.0485277 L15.0336035,82.3043197 L15.0336035,82.3043197 L21.1796962,85.8041284 L21.1796962,85.8041284 L21.2963526,85.8643332 L41.9133739,73.9792268 Z M91.9133739,69.9792268 L91.9133739,75.8005034 L71.2963526,87.6856098 L62.8416413,82.834546 L50.6793313,75.8351539 L50.6793313,70.0485277 L65.0336035,78.3043197 L65.0336035,78.3043197 L71.1796962,81.8041284 L71.1796962,81.8041284 L71.2963526,81.8643332 L91.9133739,69.9792268 Z M0.644680851,70.7913849 L0.644680851,65.0047587 L21.2963526,76.8552147 L41.9133739,65.0394092 L41.9133739,70.8260353 L21.2963526,82.6418408 L0.644680851,70.7913849 Z M50.6446809,66.7913849 L50.6446809,61.0047587 L71.2963526,72.8552147 L91.9133739,61.0394092 L91.9133739,66.8260353 L71.2963526,78.6418408 L50.6446809,66.7913849 Z M33.181459,50.9713241 L33.4240122,51.1445764 L41.8787234,55.9956402 L21.2617021,67.8114457 L14.8213071,64.1319811 L14.8213071,64.1319811 L20.8491819,67.6116074 L20.8491819,67.6116074 L21.2963526,67.8807466 L21.2963526,67.8114457 L41.9133739,55.9956402 L41.9133739,61.8169168 L21.2963526,73.6327223 L21.2963526,73.6673727 L12.5990881,68.6777071 L12.5990881,62.8564305 L33.181459,50.9713241 Z M83.181459,46.9713241 L83.4240122,47.1445764 L91.8787234,51.9956402 L71.2617021,63.8114457 L64.8213071,60.1319811 L64.8213071,60.1319811 L70.8491819,63.6116074 L70.8491819,63.6116074 L71.2963526,63.8807466 L71.2963526,63.8114457 L91.9133739,51.9956402 L91.9133739,57.8169168 L71.2963526,69.6327223 L71.2963526,69.6673727 L62.5990881,64.6777071 L62.5990881,58.8564305 L83.181459,46.9713241 Z M0.713981763,55.9956402 L21.2963526,44.1105338 L29.9589666,49.1001995 L9.37659574,60.9853059 L9.37659574,66.771932 L0.679331307,61.7822663 L0.679331307,55.9956402 L0.713981763,55.9956402 Z M50.7139818,51.9956402 L71.2963526,40.1105338 L79.9589666,45.1001995 L59.3765957,56.9853059 L59.3765957,62.771932 L50.6793313,57.7822663 L50.6793313,51.9956402 L50.7139818,51.9956402 Z M62.9133739,29.9792268 L62.9133739,35.8005034 L42.2963526,47.6856098 L33.8416413,42.834546 L21.6793313,35.8351539 L21.6793313,30.0485277 L36.0336035,38.3043197 L36.0336035,38.3043197 L42.1796962,41.8041284 L42.1796962,41.8041284 L42.2963526,41.8643332 L62.9133739,29.9792268 Z M21.6446809,26.7913849 L21.6446809,21.0047587 L42.2963526,32.8552147 L62.9133739,21.0394092 L62.9133739,26.8260353 L42.2963526,38.6418408 L21.6446809,26.7913849 Z M54.181459,6.97132409 L54.4240122,7.14457637 L62.8787234,11.9956402 L42.2617021,23.8114457 L35.8213071,20.1319811 L35.8213071,20.1319811 L41.8491819,23.6116074 L41.8491819,23.6116074 L42.2963526,23.8807466 L42.2963526,23.8114457 L62.9133739,11.9956402 L62.9133739,17.8169168 L42.2963526,29.6327223 L42.2963526,29.6673727 L33.5990881,24.6777071 L33.5990881,18.8564305 L54.181459,6.97132409 Z M21.7139818,11.9956402 L42.2963526,0.110533815 L50.9589666,5.10019947 L30.3765957,16.9853059 L30.3765957,22.771932 L21.6793313,17.7822663 L21.6793313,11.9956402 L21.7139818,11.9956402 Z" id="形状"></path>
                </g>
            </g>
        </g>
    </g>
</svg>