<?xml version="1.0" encoding="UTF-8"?>
<svg width="84px" height="81px" viewBox="0 0 84 81" version="1.1" xmlns="http://www.w3.org/2000/svg" xmlns:xlink="http://www.w3.org/1999/xlink">
    <title>散货</title>
    <defs>
        <linearGradient x1="50%" y1="0%" x2="50%" y2="100%" id="linearGradient-1">
            <stop stop-color="#FFFFFF" offset="0%"></stop>
            <stop stop-color="#EFECFF" offset="100%"></stop>
        </linearGradient>
        <path d="M59.8796756,8.92072104 L22.9261801,26.243947 L22.9261801,37.3707882 L16.4765743,34.5131963 L16.4765743,23.386355 L53.4300697,6.06312907 L41.0207015,0.5552316 C39.3582024,-0.1850772 36.6417977,-0.1850772 34.9792986,0.5552316 L4.40861212,14.1102857 C1.97423845,15.1911366 -0.0074010908,18.2486119 0,20.9063205 L0.0742394896,52.6803742 C0.0816613606,55.3676952 2.115254,58.4251705 4.58673703,59.4838121 L35.068361,72.4836346 C36.678907,73.1721218 39.3062493,73.1721218 40.9167953,72.4836346 L71.4132631,59.4838121 C73.8921679,58.4251705 75.9183387,55.3676952 75.9257606,52.6803742 L76,20.9063205 C76.0074012,18.2486119 74.0183398,15.1911366 71.5839661,14.1102857 L59.8796756,8.92072104 Z M68.8352576,33.9647154 L66.9737492,34.7905312 L66.9351287,47.2957425 C66.9351287,47.8413708 66.4253381,48.4902261 65.80741,48.7482936 L63.0190095,49.8985371 C62.4088055,50.1492312 61.9144631,49.9206572 61.9144631,49.3750288 L61.906739,37.0320313 L60.1070234,37.8283538 C59.2573723,38.2043949 58.7244093,37.6145264 59.1492349,36.7665905 L63.4592833,28.0881508 C63.8918329,27.2107215 64.9886553,26.7093333 65.4212049,27.1812281 L69.8471148,31.9960294 C70.2873886,32.4752975 69.7235292,33.5665542 68.8352576,33.9647154 L68.8352576,33.9647154 Z M51.3813731,54.4658968 C51.3889576,54.9895386 50.9338839,55.6090585 50.3650417,55.8450661 L47.8242134,56.9071003 C47.2705403,57.1431079 46.8154666,56.9144755 46.807882,56.3908337 L46.6561908,44.5683284 L45.0179253,45.3058521 C44.2443,45.6524883 43.7513034,45.084595 44.1305316,44.2733189 L47.9759046,36.0204285 C48.3627173,35.1870267 49.356295,34.7223867 49.7582768,35.1796514 L53.8539404,39.8481766 C54.2635067,40.3128165 53.7629256,41.352725 52.958962,41.7141116 L51.2751892,42.4885115 L51.3813731,54.4658968 Z M71.9926897,50.7597378 C71.9926897,51.0246409 71.7441408,51.3396607 71.44442,51.4685324 L43.5045917,62.9595968 C43.2414222,63.0669899 43.0294246,62.9524373 43.0221143,62.7090128 L43,61.3701785 C42.9928733,61.1267541 43.2048709,60.8332129 43.4680404,60.7258198 L71.4590405,49.0486074 C71.7587613,48.9268951 72,49.0414478 72,49.3063509 L71.9926897,50.7597378 Z" id="path-2"></path>
        <filter x="-9.2%" y="-6.8%" width="118.4%" height="119.2%" filterUnits="objectBoundingBox" id="filter-3">
            <feOffset dx="0" dy="2" in="SourceAlpha" result="shadowOffsetOuter1"></feOffset>
            <feGaussianBlur stdDeviation="2" in="shadowOffsetOuter1" result="shadowBlurOuter1"></feGaussianBlur>
            <feColorMatrix values="0 0 0 0 0.340171608   0 0 0 0 0.27732464   0 0 0 0 0.685829937  0 0 0 1 0" type="matrix" in="shadowBlurOuter1"></feColorMatrix>
        </filter>
    </defs>
    <g id="手持PDA" stroke="none" stroke-width="1" fill="none" fill-rule="evenodd">
        <g id="移库" transform="translate(-487.000000, -234.000000)" fill-rule="nonzero">
            <g id="形状" transform="translate(491.000000, 236.000000)">
                <use fill="black" fill-opacity="1" filter="url(#filter-3)" xlink:href="#path-2"></use>
                <use fill="url(#linearGradient-1)" xlink:href="#path-2"></use>
            </g>
        </g>
    </g>
</svg>