<?xml version="1.0" encoding="UTF-8"?>
<svg width="33px" height="33px" viewBox="0 0 33 33" version="1.1" xmlns="http://www.w3.org/2000/svg" xmlns:xlink="http://www.w3.org/1999/xlink">
    <title>编组 3</title>
    <g id="木林森PDA" stroke="none" stroke-width="1" fill="none" fill-rule="evenodd">
        <g id="叫料作业" transform="translate(-66.000000, -536.000000)" fill="#0467BF" fill-rule="nonzero">
            <g id="编组" transform="translate(32.000000, 445.000000)">
                <g id="编组-3" transform="translate(34.025625, 91.025625)">
                    <path d="M25.9459459,2.88324324 L25.9459459,3.07261724e-15 L23.0627027,3.07261724e-15 L23.0627027,2.88324324 L8.64864865,2.88324324 L8.64864865,3.07261724e-15 L5.76540541,3.07261724e-15 L5.76540541,2.88324324 L9.52511343e-14,2.88324324 L9.52511343e-14,31.7124324 L31.7113514,31.7124324 L31.7113514,2.88324324 L25.9459459,2.88324324 Z M28.8291892,28.8291892 L2.88324324,28.8291892 L2.88324324,11.5318919 L28.8291892,11.5318919 L28.8291892,28.8291892 Z" id="形状"></path>
                    <path d="M5.76648649,14.4151351 L10.0908108,14.4151351 L10.0908108,18.7394595 L5.76648649,18.7394595 L5.76648649,14.4151351 L5.76648649,14.4151351 Z M13.6940541,14.4151351 L18.0183784,14.4151351 L18.0183784,18.7394595 L13.6940541,18.7394595 L13.6940541,14.4151351 L13.6940541,14.4151351 Z M21.6216216,14.4151351 L25.9459459,14.4151351 L25.9459459,18.7394595 L21.6216216,18.7394595 L21.6216216,14.4151351 L21.6216216,14.4151351 Z M5.76648649,21.6216216 L10.0908108,21.6216216 L10.0908108,25.9459459 L5.76648649,25.9459459 L5.76648649,21.6216216 Z M13.6940541,21.6216216 L18.0183784,21.6216216 L18.0183784,25.9459459 L13.6940541,25.9459459 L13.6940541,21.6216216 Z M21.6216216,21.6216216 L25.9459459,21.6216216 L25.9459459,25.9459459 L21.6216216,25.9459459 L21.6216216,21.6216216 Z" id="形状"></path>
                </g>
            </g>
        </g>
    </g>
</svg>