<?xml version="1.0" encoding="UTF-8"?>
<svg width="44px" height="44px" viewBox="0 0 44 44" version="1.1" xmlns="http://www.w3.org/2000/svg" xmlns:xlink="http://www.w3.org/1999/xlink">
    <title>选中备份</title>
    <g id="木林森PDA" stroke="none" stroke-width="1" fill="none" fill-rule="evenodd">
        <g id="物料解绑备份" transform="translate(-632.000000, -529.000000)">
            <g id="编组" transform="translate(32.000000, 424.000000)">
                <g id="选中备份" transform="translate(600.000000, 105.000000)">
                    <circle id="椭圆形" fill="#0467BF" cx="22" cy="22" r="22"></circle>
                    <g id="编组-2" transform="translate(22.691032, 20.539257) rotate(-45.000000) translate(-22.691032, -20.539257) translate(11.232698, 14.122590)" fill="#FFFFFF">
                        <rect id="矩形" x="0.322889587" y="0.0937770797" width="4" height="12.375" rx="1"></rect>
                        <path d="M10.3228896,-0.53122292 L12.3228896,-0.53122292 C12.8751743,-0.53122292 13.3228896,-0.0835076701 13.3228896,0.46877708 L13.3228896,20.4687771 C13.3228896,21.0210618 12.8751743,21.4687771 12.3228896,21.4687771 L10.3228896,21.4687771 C9.77060484,21.4687771 9.32288959,21.0210618 9.32288959,20.4687771 L9.32288959,0.46877708 C9.32288959,-0.0835076701 9.77060484,-0.53122292 10.3228896,-0.53122292 Z" id="矩形" transform="translate(11.322890, 10.468777) rotate(-270.000000) translate(-11.322890, -10.468777) "></path>
                    </g>
                </g>
            </g>
        </g>
    </g>
</svg>