<?xml version="1.0" encoding="UTF-8"?>
<svg width="40px" height="38px" viewBox="0 0 40 38" version="1.1" xmlns="http://www.w3.org/2000/svg" xmlns:xlink="http://www.w3.org/1999/xlink">
    <title>扫码</title>
    <g id="手机扫码" stroke="none" stroke-width="1" fill="none" fill-rule="evenodd">
        <g id="收货" transform="translate(-618.000000, -193.000000)" fill="#FFFFFF" fill-rule="nonzero">
            <g id="扫码" transform="translate(618.000000, 193.000000)">
                <path d="M1.4375,12.6666667 L4.20833333,12.6666667 C4.42604167,12.6666667 4.60416667,12.4885417 4.60416667,12.2708333 L4.60416667,3.5625 L13.3125,3.5625 C13.5302083,3.5625 13.7083333,3.384375 13.7083333,3.16666667 L13.7083333,0.395833333 C13.7083333,0.178125 13.5302083,0 13.3125,0 L4.40625,0 C2.54583333,0 1.04166667,1.50416667 1.04166667,3.36458333 L1.04166667,12.2708333 C1.04166667,12.4885417 1.21979167,12.6666667 1.4375,12.6666667 Z M26.7708333,3.5625 L35.4791667,3.5625 L35.4791667,12.2708333 C35.4791667,12.4885417 35.6572917,12.6666667 35.875,12.6666667 L38.6458333,12.6666667 C38.8635417,12.6666667 39.0416667,12.4885417 39.0416667,12.2708333 L39.0416667,3.36458333 C39.0416667,1.50416667 37.5375,0 35.6770833,0 L26.7708333,0 C26.553125,0 26.375,0.178125 26.375,0.395833333 L26.375,3.16666667 C26.375,3.384375 26.553125,3.5625 26.7708333,3.5625 Z M13.3125,34.4375 L4.60416667,34.4375 L4.60416667,25.7291667 C4.60416667,25.5114583 4.42604167,25.3333333 4.20833333,25.3333333 L1.4375,25.3333333 C1.21979167,25.3333333 1.04166667,25.5114583 1.04166667,25.7291667 L1.04166667,34.6354167 C1.04166667,36.4958333 2.54583333,38 4.40625,38 L13.3125,38 C13.5302083,38 13.7083333,37.821875 13.7083333,37.6041667 L13.7083333,34.8333333 C13.7083333,34.615625 13.5302083,34.4375 13.3125,34.4375 Z M38.6458333,25.3333333 L35.875,25.3333333 C35.6572917,25.3333333 35.4791667,25.5114583 35.4791667,25.7291667 L35.4791667,34.4375 L26.7708333,34.4375 C26.553125,34.4375 26.375,34.615625 26.375,34.8333333 L26.375,37.6041667 C26.375,37.821875 26.553125,38 26.7708333,38 L35.6770833,38 C37.5375,38 39.0416667,36.4958333 39.0416667,34.6354167 L39.0416667,25.7291667 C39.0416667,25.5114583 38.8635417,25.3333333 38.6458333,25.3333333 Z M39.4375,17.21875 L0.645833333,17.21875 C0.428125,17.21875 0.25,17.396875 0.25,17.6145833 L0.25,20.3854167 C0.25,20.603125 0.428125,20.78125 0.645833333,20.78125 L39.4375,20.78125 C39.6552083,20.78125 39.8333333,20.603125 39.8333333,20.3854167 L39.8333333,17.6145833 C39.8333333,17.396875 39.6552083,17.21875 39.4375,17.21875 Z" id="形状"></path>
            </g>
        </g>
    </g>
</svg>