<?xml version="1.0" encoding="UTF-8"?>
<svg width="150px" height="150px" viewBox="0 0 150 150" version="1.1" xmlns="http://www.w3.org/2000/svg" xmlns:xlink="http://www.w3.org/1999/xlink">
    <title>容器上架</title>
    <defs>
        <linearGradient x1="15.4867147%" y1="6.07257208%" x2="87.4693696%" y2="95.8505766%" id="linearGradient-1">
            <stop stop-color="#F0F9FF" offset="0%"></stop>
            <stop stop-color="#BBE6FF" offset="100%"></stop>
        </linearGradient>
    </defs>
    <g id="WMS标准版pda" stroke="none" stroke-width="1" fill="none" fill-rule="evenodd">
        <g id="上架" transform="translate(-422.000000, -472.000000)">
            <g id="容器上架" transform="translate(422.000000, 472.000000)">
                <circle id="椭圆形" fill="#0F8FFF" cx="75" cy="75" r="75"></circle>
                <g id="编组" transform="translate(33.500000, 27.500000)" fill="url(#linearGradient-1)">
                    <path d="M2.65292553,64.6026845 L2.65292553,69.655876 L41.0571809,91.8393866 L66.3736702,77.2356632 L69.0013298,78.8021526 L41.0571809,94.8713015 L0.0252659574,71.1718334 L0.0252659574,64.6026845 L2.65292553,64.6026845 Z M71.1236702,56.7197058 L71.1236702,65.2090675 L41.0571809,82.5415143 L28.7273936,75.4670462 L10.9906915,65.2595994 L10.9906915,56.8207696 L31.1359262,68.409012 L31.1359262,68.409012 L39.3565835,73.1041608 L39.3565835,73.1041608 L40.9677899,74.0080698 L40.9677899,74.0080698 L41.0571809,74.0521526 L71.1236702,56.7197058 Z M54.8018617,8.05747174 L82.0890957,23.8234292 L82.0890957,71.2223654 L75.5704787,74.9617271 L72.9428191,73.3952377 L79.4614362,69.655876 L79.4614362,25.2888547 L52.1742021,9.57342919 L54.8018617,8.05747174 Z M10.9401596,52.0707696 L10.9401596,43.6319398 L41.0571809,60.9138547 L71.1236702,43.6824717 L71.1236702,52.1213015 L41.0571809,69.3526845 L10.9401596,52.0707696 Z M41.0571809,0.0734291888 L48.3337766,4.26757812 L45.706117,5.78353557 L41.1077128,3.10534408 L2.65292553,25.2888547 L2.65292553,56.5175781 L0.0252659574,56.5175781 L0.0252659574,23.7728973 L41.0571809,0.0734291888 Z M58.3896277,23.1665143 L58.7433511,23.4191739 L71.0731383,30.493642 L41.0066489,47.7250249 L32.0420518,42.6049363 L32.0420518,42.6049363 L39.6601618,46.9989478 L39.6601618,46.9989478 L40.7314998,47.6258951 L40.7314998,47.6258951 L41.0470202,47.8177742 L41.0470202,47.8177742 L41.0571809,47.8260888 L41.0571809,47.7250249 L71.1236702,30.493642 L71.1236702,38.9830037 L41.0571809,56.2143866 L41.0571809,56.2649186 L28.3736702,48.9883228 L28.3736702,40.4989611 L58.3896277,23.1665143 Z M41.0571809,13.1611951 L53.3364362,20.2356632 L53.6901596,20.4377909 L23.6742021,37.7702377 L23.6742021,46.2090675 L10.9906915,38.9324717 L10.9906915,30.493642 L11.0412234,30.493642 L41.0571809,13.1611951 Z" id="形状"></path>
                </g>
            </g>
        </g>
    </g>
</svg>