<?xml version="1.0" encoding="UTF-8"?>
<svg width="75px" height="79px" viewBox="0 0 75 79" version="1.1" xmlns="http://www.w3.org/2000/svg" xmlns:xlink="http://www.w3.org/1999/xlink">
    <title>rongqi</title>
    <defs>
        <linearGradient x1="50%" y1="0%" x2="50%" y2="100%" id="linearGradient-1">
            <stop stop-color="#FFFFFF" offset="0%"></stop>
            <stop stop-color="#E8F6FF" offset="100%"></stop>
        </linearGradient>
        <path d="M52.605,0.0273437227 C55.6663191,0.0273437227 58.3726963,2.01609131 59.2865,4.93784378 L65.863,25.9868438 C66.2852782,27.3384527 66.5,28.746305 66.5,30.1623437 L66.5,63.0273437 C66.5,64.8838592 65.7625022,66.6643366 64.4497475,67.9770913 C63.1369928,69.2898459 61.3565154,70.0273437 59.5,70.0273437 L6.99999999,70.0273437 C5.14348454,70.0273437 3.36300714,69.2898459 2.05025249,67.9770912 C0.737497848,66.6643366 -1.06945066e-08,64.8838592 -1.06945066e-08,63.0273437 L-1.06945066e-08,30.1623437 C-1.06945066e-08,28.746305 0.214721772,27.3384527 0.636999973,25.9868438 L7.21700003,4.93784378 C8.13041783,2.01732432 10.8349732,0.0285972937 13.895,0.0273437227 L52.605,0.0273437227 Z M43.75,38.5273438 L22.75,38.5273438 C20.8172126,38.5276397 19.2505358,40.0945564 19.2505358,42.0273438 C19.2505358,43.9601312 20.8172126,45.5270479 22.75,45.5273438 L43.75,45.5273438 C45.6827873,45.5270479 47.2494642,43.9601312 47.2494642,42.0273438 C47.2494642,40.0945564 45.6827873,38.5276397 43.75,38.5273438 L43.75,38.5273438 Z M50.3615,8.77734348 L16.1385,8.77734348 C15.0136429,8.77685432 13.9976942,9.44955844 13.559,10.4853437 L13.4365,10.8423437 L8.75000003,28.0273438 L57.75,28.0273438 L53.06,10.8423437 C52.7286997,9.6245031 51.6235989,8.77883577 50.3615,8.77734348 L50.3615,8.77734348 Z" id="path-2"></path>
        <filter x="-10.5%" y="-7.1%" width="121.1%" height="120.0%" filterUnits="objectBoundingBox" id="filter-3">
            <feOffset dx="0" dy="2" in="SourceAlpha" result="shadowOffsetOuter1"></feOffset>
            <feGaussianBlur stdDeviation="2" in="shadowOffsetOuter1" result="shadowBlurOuter1"></feGaussianBlur>
            <feColorMatrix values="0 0 0 0 0.20323731   0 0 0 0 0.527808543   0 0 0 0 0.725373641  0 0 0 1 0" type="matrix" in="shadowBlurOuter1"></feColorMatrix>
        </filter>
    </defs>
    <g id="手持PDA" stroke="none" stroke-width="1" fill="none" fill-rule="evenodd">
        <g id="移库" transform="translate(-154.000000, -235.000000)" fill-rule="nonzero">
            <g id="形状" transform="translate(158.000000, 237.000000)">
                <use fill="black" fill-opacity="1" filter="url(#filter-3)" xlink:href="#path-2"></use>
                <use fill="url(#linearGradient-1)" xlink:href="#path-2"></use>
            </g>
        </g>
    </g>
</svg>