<?xml version="1.0" encoding="UTF-8"?>
<svg width="74px" height="74px" viewBox="0 0 74 74" version="1.1" xmlns="http://www.w3.org/2000/svg" xmlns:xlink="http://www.w3.org/1999/xlink">
    <title>不良</title>
    <defs>
        <filter id="filter-1">
            <feColorMatrix in="SourceGraphic" type="matrix" values="0 0 0 0 0.945098 0 0 0 0 0.407843 0 0 0 0 0.145098 0 0 0 1.000000 0"></feColorMatrix>
        </filter>
    </defs>
    <g id="木林森PDA" stroke="none" stroke-width="1" fill="none" fill-rule="evenodd">
        <g id="不良" transform="translate(-389.000000, -360.000000)" filter="url(#filter-1)">
            <g transform="translate(389.000000, 360.000000)">
                <path d="M72.4003035,35.647551 L60.8083797,42.3401605 C59.3667335,48.7596689 55.3475326,54.5807485 49.1990473,58.131063 C43.0516501,61.6813775 36.001184,62.2504288 29.7199585,60.2886706 L18.1280347,66.9823682 C28.8886998,73.7413488 42.9384945,74.4703438 54.7099441,67.6743694 C66.4803056,60.878395 72.8746867,48.346209 72.4013915,35.647551 L72.4003035,35.647551 Z M73.9344327,34.7618765 C74.7428427,48.3059511 68.0459878,61.7923589 55.4965933,69.0376989 C42.9471988,76.2830388 27.9181727,75.3396976 16.5949936,67.8669546 L16.5819371,67.874571 L15.7604708,67.2989914 C11.3406817,64.2028575 7.65466382,60.1739504 4.96281242,55.4968884 C2.25848202,50.827007 0.61234382,45.6203433 0.140641731,40.2445718 L0.0535989444,39.2446518 L13.1916204,31.6598395 C14.6332666,25.2403311 18.6524675,19.4192515 24.8009527,15.868937 C30.9483499,12.3186225 37.9988161,11.7495712 44.2800415,13.7113294 L55.8719653,7.01763185 C45.1113002,0.258651242 31.0615056,-0.470343773 19.290056,6.32563062 C7.5196944,13.1216051 1.12531334,25.653791 1.5986085,38.352449 L0.0655673104,39.2381235 C-0.742842599,25.6940489 5.95401219,12.2076411 18.5034068,4.96230114 C31.0528013,-2.28303884 46.0818273,-1.33969756 57.4050065,6.13304537 L57.4180629,6.12542899 L58.2395293,6.70100864 C62.6593183,9.7971425 66.3453362,13.8260496 69.0371876,18.5031116 C71.741518,23.172993 73.3876562,28.3796567 73.8593583,33.7554282 L73.9464011,34.7553482 L73.9333447,34.7618765 L73.9344327,34.7618765 Z M31.6316358,59.1853856 C37.3277751,60.5720068 43.3393242,59.7059058 48.4123981,56.7677335 C53.4935687,53.8433046 57.2494839,49.0699887 58.8967024,43.4434455 L31.6316358,59.1853856 Z M42.3683642,14.8146144 C36.6722249,13.4279932 30.6606758,14.2940942 25.587602,17.2322665 C20.5064313,20.1566954 16.7505161,24.9300113 15.1032977,30.5565545 L42.3683642,14.8146144 L42.3683642,14.8146144 Z M16.6635397,66.0096494 L72.290412,33.8925227 C71.8390412,28.7460269 70.263086,23.7614273 67.6738799,19.2908614 C65.0967853,14.8120956 61.5674737,10.9540084 57.3353723,7.98926257 L1.70958809,40.1074773 C2.16095889,45.2539731 3.7369141,50.2385727 6.32612014,54.7091386 C8.90302971,59.1873979 12.4319528,63.0450951 16.6635397,66.0096494 L16.6635397,66.0096494 Z M23.9076761,12.7494912 C23.4204188,13.0307327 22.8201363,13.0306578 22.3329492,12.7492947 C21.8457621,12.4679315 21.5456858,11.9480259 21.545756,11.3854212 C21.5458262,10.8228165 21.8460323,10.3029857 22.3332896,10.0217442 C23.0849236,9.6005552 24.0354989,9.86179286 24.4663328,10.6079484 C24.8971667,11.3541039 24.6482054,12.3079821 23.9076761,12.7484032 L23.9076761,12.7494912 Z M15.8333691,19.2277543 C15.3457748,19.5177452 14.7398738,19.5229803 14.2473417,19.2414579 C13.7548097,18.9599354 13.4518226,18.4351963 13.4542183,17.8678827 C13.4566425,17.3005692 13.7640766,16.7784231 14.2589826,16.5010954 C15.0106166,16.0799064 15.9611919,16.341144 16.3920258,17.0872996 C16.8228597,17.8334551 16.5738984,18.7873333 15.8333691,19.2277543 L15.8333691,19.2277543 Z M32.8741717,9.38958583 C32.3865775,9.67957569 31.7806771,9.68481013 31.2881457,9.4032877 C30.7956143,9.12176527 30.4926277,8.59702672 30.495023,8.02971375 C30.4974469,7.46240079 30.8048801,6.94025503 31.2997852,6.66292681 C32.0514194,6.2417362 33.0019961,6.50297348 33.4328305,7.24912984 C33.8636649,7.9952862 33.6147025,8.94916544 32.8741717,9.38958583 L32.8741717,9.38958583 Z M53.4238868,63.8727147 C52.9362926,64.1627056 52.3303915,64.1679407 51.8378594,63.8864183 C51.3453274,63.6048958 51.0423404,63.0801567 51.044736,62.5128431 C51.0471602,61.9455296 51.3545943,61.4233835 51.8495003,61.1460558 C52.6011343,60.7248668 53.5517096,60.9861044 53.9825435,61.73226 C54.4133775,62.4784155 54.1644161,63.4322937 53.4238868,63.8727147 L53.4238868,63.8727147 Z M44.169062,68.3065278 C43.6814678,68.5965176 43.0755674,68.6017521 42.583036,68.3202296 C42.0905046,68.0387072 41.7875179,67.5139686 41.7899133,66.9466557 C41.7923372,66.3793427 42.0997704,65.857197 42.5946755,65.5798687 C43.3463097,65.1586781 44.2968864,65.4199154 44.7277208,66.1660718 C45.1585552,66.9122281 44.9095928,67.8661074 44.169062,68.3065278 L44.169062,68.3065278 Z M61.2098646,58.4683592 C60.7222703,58.7583501 60.1163693,58.7635852 59.6238372,58.4820627 C59.1313051,58.2005402 58.8283181,57.6758011 58.8307138,57.1084876 C58.833138,56.541174 59.1405721,56.019028 59.6354781,55.7417002 C60.3871121,55.3205112 61.3376874,55.5817489 61.7685213,56.3279044 C62.1993552,57.07406 61.9503939,58.0279381 61.2098646,58.4683592 L61.2098646,58.4683592 Z M14.1556193,53.2228592 L13.4788616,54.2314836 C13.3164337,54.4739431 13.0331299,54.6065552 12.7429011,54.5759803 C12.4526723,54.5454054 12.2032207,54.3566688 12.0948811,54.0856847 L11.6433467,52.9584625 C11.5525261,52.7317709 11.3615766,52.5601146 11.1265301,52.4938642 L9.95906869,52.1630963 C9.67780235,52.0838559 9.46363656,51.8552337 9.40290804,51.5693941 C9.34217952,51.2835546 9.4448968,50.9876063 9.66965142,50.8008549 L10.6020973,50.0239856 C10.7899943,49.8676342 10.8945336,49.6328191 10.8849864,49.3885631 L10.8382008,48.1742967 C10.8267354,47.8824656 10.9778877,47.6083023 11.2307826,47.4622235 C11.4836775,47.3161446 11.7966847,47.3221971 12.0437435,47.4779433 L13.0719365,48.1264224 C13.2786632,48.2569887 13.5332633,48.2831019 13.7628387,48.1982338 L14.9020112,47.7793338 C15.1760032,47.6782856 15.4834235,47.7373385 15.700477,47.9327126 C15.9175304,48.1280866 16.008492,48.427625 15.9367324,48.7107065 L15.6396989,49.8890671 C15.5797688,50.1254102 15.6328163,50.3761841 15.7833195,50.5680117 L16.5340636,51.5222335 C16.715453,51.7515564 16.7546899,52.0625644 16.6359408,52.3297541 C16.5171918,52.5969438 16.2600513,52.7762265 15.9682854,52.7952547 L14.7562146,52.8757705 C14.5130605,52.8921855 14.2912454,53.0203742 14.1556193,53.2228592 L14.1556193,53.2228592 Z M61.8703018,25.6733759 L61.193544,26.6830884 C61.0311162,26.9255479 60.7478123,27.0581599 60.4575836,27.027585 C60.1673549,26.9970101 59.9179032,26.8082736 59.8095637,26.5372894 L59.3580292,25.4100673 C59.2674837,25.1829586 59.0764906,25.0108611 58.8412126,24.9443809 L57.6737511,24.6136131 C57.3933084,24.5341502 57.1797926,24.3061281 57.1189054,24.0210709 C57.0580182,23.7360137 57.1597417,23.4406554 57.3832458,23.2535477 L58.3167798,22.4755904 C58.5046768,22.319239 58.6092161,22.0844239 58.5996689,21.8401679 L58.5528834,20.6259015 C58.5414179,20.3340704 58.6925702,20.0599071 58.9454651,19.9138283 C59.19836,19.7677495 59.5113671,19.7738019 59.758426,19.929548 L60.786619,20.5780272 C60.9933457,20.7085935 61.2479458,20.7347067 61.4775212,20.6498387 L62.6166937,20.2309386 C62.8906856,20.1298904 63.1981059,20.1889433 63.4151594,20.3843174 C63.6322129,20.5796914 63.7231745,20.8792298 63.6514148,21.1623113 L63.3543813,22.3406719 C63.2944512,22.577015 63.3474987,22.8277889 63.4980019,23.0196165 L64.2487461,23.9738383 C64.4301355,24.2031612 64.4693724,24.5141692 64.3506233,24.7813589 C64.2318743,25.0485486 63.9747338,25.2278312 63.6829679,25.2468595 L62.470897,25.3273753 C62.227743,25.3437903 62.0059279,25.471979 61.8703018,25.674464 L61.8703018,25.6733759 Z" id="形状" fill-opacity="0.25" fill="#000000" fill-rule="nonzero"></path>
                <path d="M26.2,47.872 L26.2,32.248 C26.776,31.432 27.28,30.592 27.784,29.776 L35.272,29.776 L35.272,27.496 L14.728,27.496 L14.728,29.776 L24.856,29.776 C22.552,33.688 18.616,37.528 14.056,39.76 C14.536,40.24 15.232,41.152 15.592,41.752 C18.688,40.12 21.472,37.84 23.776,35.272 L23.776,47.872 L26.2,47.872 Z M34.192,41.512 L36.064,39.784 C34.312,37.936 30.664,35.224 27.976,33.424 L26.296,34.864 C29.032,36.808 32.584,39.664 34.192,41.512 Z M41.104,48.04 C41.728,47.656 42.712,47.416 49.288,45.784 C49.168,45.304 49.048,44.344 49.048,43.72 L43.48,45.04 L43.48,38.608 L46.792,38.608 C49.048,43.216 52.912,46.264 58.432,47.608 C58.72,47.008 59.368,46.096 59.848,45.616 C57.544,45.136 55.528,44.368 53.824,43.312 C55.384,42.424 57.16,41.296 58.552,40.216 L56.704,38.8 C55.504,39.832 53.68,41.128 52.048,42.064 C50.872,41.08 49.888,39.904 49.144,38.608 L56.848,38.608 L56.848,28.12 L50.584,28.12 C50.368,27.352 50.032,26.392 49.672,25.672 L47.392,26.176 C47.632,26.752 47.896,27.472 48.064,28.12 L41.176,28.12 L41.176,43.96 C41.176,45.16 40.408,45.928 39.88,46.288 C40.264,46.672 40.888,47.536 41.104,48.04 Z M54.568,32.392 L43.48,32.392 L43.48,30.088 L54.568,30.088 L54.568,32.392 Z M54.568,36.64 L43.48,36.64 L43.48,34.192 L54.568,34.192 L54.568,36.64 Z" fill="#4D5761" fill-rule="nonzero" transform="translate(36.952000, 36.856000) rotate(-30.000000) translate(-36.952000, -36.856000) "></path>
            </g>
        </g>
    </g>
</svg>