<?xml version="1.0" encoding="UTF-8"?>
<svg width="52px" height="48px" viewBox="0 0 52 48" version="1.1" xmlns="http://www.w3.org/2000/svg" xmlns:xlink="http://www.w3.org/1999/xlink">
    <title>编组 10</title>
    <g id="木林森PDA" stroke="none" stroke-width="1" fill="none" fill-rule="evenodd">
        <g id="配送作业" transform="translate(-510.000000, -1125.000000)">
            <g id="编组-10" transform="translate(510.557512, 1125.000000)">
                <rect id="矩形备份" x="1.44248774" y="0" width="48" height="48"></rect>
                <path d="M26.6370498,3.64869062 L46.5772152,20.0554114 C47.430172,20.7572222 47.5527,22.0176104 46.8508892,22.8705672 C46.4709794,23.3322966 45.9044086,23.5998263 45.3064743,23.5998263 L5.55144647,23.5998263 C4.44687697,23.5998263 3.55144647,22.7043958 3.55144647,21.5998263 C3.55144647,21.0040584 3.81704934,20.4393066 4.27593208,20.0593514 L24.0907945,3.65263061 C24.8289749,3.04141668 25.8969814,3.03976408 26.6370498,3.64869062 Z" id="三角形" fill="#0467BF"></path>
                <path d="M6.44248774,23.5998263 L44.4424877,23.5998263 L44.4424877,42.4001737 C44.4424877,44.0570279 43.099342,45.4001737 41.4424877,45.4001737 L9.44248774,45.4001737 C7.78563349,45.4001737 6.44248774,44.0570279 6.44248774,42.4001737 L6.44248774,23.5998263 L6.44248774,23.5998263 Z" id="矩形" fill="#0467BF"></path>
                <path d="M35.7557253,28.5 C36.30801,28.5 36.7557253,28.9477153 36.7557253,29.5 L36.7557253,33.5 C36.7557253,34.0522847 36.30801,34.5 35.7557253,34.5 L28.7557253,34.5 C28.2034405,34.5 27.7557253,34.0522847 27.7557253,33.5 L27.7557253,29.5 C27.7557253,28.9477153 28.2034405,28.5 28.7557253,28.5 L35.7557253,28.5 Z M22.1292502,28.5 C22.681535,28.5 23.1292502,28.9477153 23.1292502,29.5 L23.1292502,33.5 C23.1292502,34.0522847 22.681535,34.5 22.1292502,34.5 L15.1292502,34.5 C14.5769655,34.5 14.1292502,34.0522847 14.1292502,33.5 L14.1292502,29.5 C14.1292502,28.9477153 14.5769655,28.5 15.1292502,28.5 L22.1292502,28.5 Z" id="形状结合" fill="#FFFFFF"></path>
            </g>
        </g>
    </g>
</svg>