<?xml version="1.0" encoding="UTF-8"?>
<svg width="48px" height="49px" viewBox="0 0 48 49" version="1.1" xmlns="http://www.w3.org/2000/svg" xmlns:xlink="http://www.w3.org/1999/xlink">
    <title>配送作业-未选</title>
    <g id="木林森PDA" stroke="none" stroke-width="1" fill="none" fill-rule="evenodd">
        <g id="配送作业" transform="translate(-156.000000, -1114.000000)">
            <g id="配送作业-未选" transform="translate(156.000000, 1114.500000)">
                <rect id="矩形" x="0" y="0" width="48" height="48"></rect>
                <g id="编组-9" transform="translate(3.500000, 3.654200)" fill="#A5A5A5">
                    <path d="M38,10.3458002 C39.6568542,10.3458002 41,11.6889459 41,13.3458002 L41,31.3458002 C41,33.0026544 39.6568542,34.3458002 38,34.3458002 L3,34.3458002 C1.34314575,34.3458002 0,33.0026544 0,31.3458002 L0,13.3458002 C0,11.6889459 1.34314575,10.3458002 3,10.3458002 L38,10.3458002 Z M38,13.3458002 L3,13.3458002 L3,31.3458002 L38,31.3458002 L38,13.3458002 Z" id="矩形" fill-rule="nonzero"></path>
                    <path d="M12,19.3458002 C13.6568542,19.3458002 15,20.6889459 15,22.3458002 C15,24.0026544 13.6568542,25.3458002 12,25.3458002 C10.3431458,25.3458002 9,24.0026544 9,22.3458002 C9,20.6889459 10.3431458,19.3458002 12,19.3458002 Z M29,19.3458002 C30.6568542,19.3458002 32,20.6889459 32,22.3458002 C32,24.0026544 30.6568542,25.3458002 29,25.3458002 C27.3431458,25.3458002 26,24.0026544 26,22.3458002 C26,20.6889459 27.3431458,19.3458002 29,19.3458002 Z" id="形状结合"></path>
                    <rect id="矩形" x="8" y="34.3458002" width="25" height="3" rx="1"></rect>
                    <path d="M19.9919533,0.473484124 C25.0611484,0.473484124 29.5194073,3.65073343 31.2351031,8.310228 L31.3681615,8.69123956 L28.5196743,9.63257938 C27.3146129,5.98607274 23.8944874,3.47348412 19.9919533,3.47348412 C16.2549886,3.47348412 12.9575002,5.77746601 11.6267961,9.18157298 L11.5003382,9.52560617 L8.66402544,8.54819622 C10.3158181,3.7549152 14.8405556,0.473484124 19.9919533,0.473484124 Z" id="路径" fill-rule="nonzero"></path>
                </g>
            </g>
        </g>
    </g>
</svg>