<?xml version="1.0" encoding="UTF-8"?>
<svg width="48px" height="48px" viewBox="0 0 48 48" version="1.1" xmlns="http://www.w3.org/2000/svg" xmlns:xlink="http://www.w3.org/1999/xlink">
    <title>配送作业-选中</title>
    <g id="木林森PDA" stroke="none" stroke-width="1" fill="none" fill-rule="evenodd">
        <g id="配送作业" transform="translate(-156.000000, -1193.000000)">
            <g id="配送作业-选中" transform="translate(156.000000, 1193.000000)">
                <rect id="矩形" x="0" y="0" width="48" height="48"></rect>
                <g id="编组-9" transform="translate(1.000000, 1.854200)">
                    <rect id="矩形" stroke="#0467BF" stroke-width="3.3" fill="#0467BF" x="1.65" y="12.8303802" width="41.8" height="23.1" rx="3"></rect>
                    <path d="M13.2,21.0803802 C15.0225397,21.0803802 16.5,22.5578405 16.5,24.3803802 C16.5,26.2029199 15.0225397,27.6803802 13.2,27.6803802 C11.3774603,27.6803802 9.9,26.2029199 9.9,24.3803802 C9.9,22.5578405 11.3774603,21.0803802 13.2,21.0803802 Z M31.9,21.0803802 C33.7225397,21.0803802 35.2,22.5578405 35.2,24.3803802 C35.2,26.2029199 33.7225397,27.6803802 31.9,27.6803802 C30.0774603,27.6803802 28.6,26.2029199 28.6,24.3803802 C28.6,22.5578405 30.0774603,21.0803802 31.9,21.0803802 Z" id="形状结合" fill="#FFFFFF"></path>
                    <rect id="矩形" fill="#0467BF" x="8.8" y="37.5803802" width="27.5" height="3.3" rx="1.1"></rect>
                    <path d="M21.9911486,0.320832536 C27.5672633,0.320832536 32.471348,3.81580677 34.3586134,8.94125081 L34.5049776,9.36036352 L31.3716417,10.3958373 C30.0460742,6.38468002 26.2839362,3.62083254 21.9911486,3.62083254 C17.8804874,3.62083254 14.2532502,6.15521262 12.7894757,9.89973028 L12.650372,10.2781668 L9.53042799,9.20301584 C11.3473999,3.93040672 16.3246112,0.320832536 21.9911486,0.320832536 Z" id="路径" fill="#0467BF" fill-rule="nonzero"></path>
                </g>
            </g>
        </g>
    </g>
</svg>