<?xml version="1.0" encoding="UTF-8"?>
<svg width="50px" height="48px" viewBox="0 0 50 48" version="1.1" xmlns="http://www.w3.org/2000/svg" xmlns:xlink="http://www.w3.org/1999/xlink">
    <title>编组 10备份</title>
    <g id="木林森PDA" stroke="none" stroke-width="1" fill="none" fill-rule="evenodd">
        <g id="配送作业" transform="translate(-511.000000, -1193.000000)">
            <g id="编组-10备份" transform="translate(511.557512, 1193.000000)">
                <rect id="矩形备份" x="0.442487741" y="0" width="48" height="48"></rect>
                <path d="M21.4984078,3.02367655 L2.31929629,18.9039952 C1.5162515,19.5689168 1.05144647,20.5572325 1.05144647,21.5998263 L1.05662534,21.7918615 C1.14256903,23.381247 2.28890836,24.6886694 3.8006143,25.0190996 L3.942,25.046 L3.94248774,42.4001737 C3.94248774,44.8854551 5.95720637,46.9001737 8.44248774,46.9001737 L40.4424877,46.9001737 L40.6543234,46.8952757 C43.0412512,46.7846628 44.9424877,44.814447 44.9424877,42.4001737 L44.942,25.04 L45.1267197,25.002382 C45.8584298,24.8259649 46.5216494,24.4161757 47.0092004,23.8236229 C48.2373694,22.3309485 48.0229453,20.1252692 46.5302709,18.8971002 L27.2274823,3.01481157 C25.5623284,1.64472687 23.1593138,1.64844522 21.4984078,3.02367655 Z M25.3213709,5.33143397 L44.6241595,21.2137226 C44.8373987,21.3891753 44.8680307,21.7042723 44.692578,21.9175115 C44.5976005,22.0329439 44.4559579,22.0998263 44.3064743,22.0998263 L41.9424877,22.0998263 L41.9424877,42.4001737 C41.9424877,43.2286008 41.2709149,43.9001737 40.4424877,43.9001737 L8.44248774,43.9001737 C7.61406062,43.9001737 6.94248774,43.2286008 6.94248774,42.4001737 L6.94248774,22.0998263 L4.55144647,22.0998263 C4.2753041,22.0998263 4.05144647,21.8759687 4.05144647,21.5998263 C4.05144647,21.4508843 4.11784719,21.3096964 4.23256788,21.2147076 L23.4116794,5.33438896 C23.9653147,4.87597852 24.7663196,4.87473907 25.3213709,5.33143397 Z" id="形状结合" fill="#A5A5A5" fill-rule="nonzero"></path>
                <path d="M34.7557253,28.5 C35.30801,28.5 35.7557253,28.9477153 35.7557253,29.5 L35.7557253,33.5 C35.7557253,34.0522847 35.30801,34.5 34.7557253,34.5 L27.7557253,34.5 C27.2034405,34.5 26.7557253,34.0522847 26.7557253,33.5 L26.7557253,29.5 C26.7557253,28.9477153 27.2034405,28.5 27.7557253,28.5 L34.7557253,28.5 Z M21.1292502,28.5 C21.681535,28.5 22.1292502,28.9477153 22.1292502,29.5 L22.1292502,33.5 C22.1292502,34.0522847 21.681535,34.5 21.1292502,34.5 L14.1292502,34.5 C13.5769655,34.5 13.1292502,34.0522847 13.1292502,33.5 L13.1292502,29.5 C13.1292502,28.9477153 13.5769655,28.5 14.1292502,28.5 L21.1292502,28.5 Z" id="形状结合" fill="#A5A5A5"></path>
            </g>
        </g>
    </g>
</svg>