<?xml version="1.0" encoding="UTF-8"?>
<svg width="71px" height="78px" viewBox="0 0 71 78" version="1.1" xmlns="http://www.w3.org/2000/svg" xmlns:xlink="http://www.w3.org/1999/xlink">
    <title>home-yiku</title>
    <defs>
        <filter id="filter-1">
            <feColorMatrix in="SourceGraphic" type="matrix" values="0 0 0 0 0.914253 0 0 0 0 0.959911 0 0 0 0 1.000000 0 0 0 1.000000 0"></feColorMatrix>
        </filter>
        <filter x="-13.6%" y="-12.1%" width="127.1%" height="124.2%" filterUnits="objectBoundingBox" id="filter-2">
            <feOffset dx="0" dy="1" in="SourceAlpha" result="shadowOffsetOuter1"></feOffset>
            <feGaussianBlur stdDeviation="1.5" in="shadowOffsetOuter1" result="shadowBlurOuter1"></feGaussianBlur>
            <feColorMatrix values="0 0 0 0 0.0912794424   0 0 0 0 0.493179302   0 0 0 0 0.833248415  0 0 0 1 0" type="matrix" in="shadowBlurOuter1" result="shadowMatrixOuter1"></feColorMatrix>
            <feMerge>
                <feMergeNode in="shadowMatrixOuter1"></feMergeNode>
                <feMergeNode in="SourceGraphic"></feMergeNode>
            </feMerge>
        </filter>
    </defs>
    <g id="手持PDA" stroke="none" stroke-width="1" fill="#ffffff" fill-rule="evenodd">
        <g id="home-yiku" transform="translate(-537.000000, -791.000000)" filter="url(#filter-1)">
            <g filter="url(#filter-2)" transform="translate(543.000000, 797.000000)">
                <path d="M35.7903038,33.425824 C36.1619302,33.425824 36.5244333,33.5418147 36.8279713,33.7578598 L56.0689241,47.4532737 C56.8802128,48.03083 57.0732799,49.1615956 56.5001778,49.9790782 C56.3897821,50.1365512 56.2551554,50.2752646 56.1013756,50.3899863 L36.8605011,64.7441138 C36.0621148,65.3397139 34.9358506,65.1703867 34.3448415,64.3659838 C34.1155466,64.0539207 33.9917831,63.6759011 33.9917843,63.2876159 L33.9917843,54.0534902 L18.2617762,54.0534902 C7.05152584,54.1177069 0.96424105,48.535266 5.68434189e-14,37.3062464 C0.974093809,38.3339501 5.23150229,44.3976616 18.2617762,44.3976616 C26.9486254,44.3976616 32.1920136,44.2970423 33.9917843,44.0960401 L33.9917843,35.2380746 C33.9917843,34.2371607 34.7969736,33.425824 35.7903038,33.425824 Z M23.7551585,0.73393741 C23.9844534,1.04600051 24.1082169,1.42402012 24.1082157,1.81230528 L24.1082157,11.046431 L39.8382238,11.046431 C51.0484742,10.9822143 57.135759,16.5646552 58.1,27.7936748 C57.1259062,26.7659711 52.8684977,20.7022596 39.8382238,20.7022596 C31.1513746,20.7022596 25.9079864,20.8028789 24.1082157,21.0038811 L24.1082157,29.8618466 C24.1082157,30.8627605 23.3030264,31.6740972 22.3096962,31.6740972 C21.9380698,31.6740972 21.5755667,31.5581065 21.2720287,31.3420614 L2.03107591,17.6466475 C1.21978721,17.0690912 1.02672005,15.9383256 1.59982221,15.120843 C1.71021792,14.96337 1.84484461,14.8246566 1.99862436,14.7099349 L21.2394989,0.355886185 C22.0378852,-0.2397139 23.1641494,-0.0703866629 23.7551585,0.734016204 L23.7551585,0.73393741 Z" id="形状" fill="#ffffff" fill-rule="nonzero"></path>
            </g>
        </g>
    </g>
</svg>
