<?xml version="1.0" encoding="UTF-8"?>
<svg width="150px" height="150px" viewBox="0 0 150 150" version="1.1" xmlns="http://www.w3.org/2000/svg" xmlns:xlink="http://www.w3.org/1999/xlink">
    <title>容器上架</title>
    <defs>
        <linearGradient x1="5.58296945%" y1="6.07257208%" x2="98.2213768%" y2="95.8505766%" id="linearGradient-1">
            <stop stop-color="#F0F9FF" offset="0%"></stop>
            <stop stop-color="#BBE6FF" offset="100%"></stop>
        </linearGradient>
    </defs>
    <g id="手持PDA" stroke="none" stroke-width="1" fill="none" fill-rule="evenodd">
        <g id="扫码出入库" transform="translate(-422.000000, -472.000000)">
            <g id="容器上架" transform="translate(422.000000, 472.000000)">
                <circle id="椭圆形" fill="#0F8FFF" cx="75" cy="75" r="75"></circle>
                <g id="编组-10" transform="translate(37.000000, 32.500000)" fill="url(#linearGradient-1)">
                    <path d="M32.9846741,25.8801815 L32.9846741,7.03216381 L42.4086829,7.03216381 L42.4086829,25.8801815 L51.8326916,25.8801815 L37.6966784,44.7281991 L23.5606651,25.8801815 L32.9846741,25.8801815 Z M18.8480175,7 L18.8480175,11.7126477 L13.2174135,11.7126477 L5.14557309,49.408683 L23.560022,49.408683 L32.9840308,58.8326917 L42.4080395,58.8326917 L51.8320483,49.408683 L70.2471406,49.408683 L62.1753001,11.7120044 L56.544696,11.7120044 L56.544696,7 L65.9687048,7 L65.9687048,7.01865502 L75.3933571,49.408683 L75.3933571,68.2573439 C75.3933571,73.4595254 71.1760327,77.6813527 65.9693483,77.6813527 L9.42400876,77.6813527 C4.21732423,77.6813527 -1.09139364e-11,73.4595254 -1.09139364e-11,68.2573439 L-1.09139364e-11,49.4093263 L9.42400876,7.01929833 L9.42400876,7 L18.8480175,7 Z M42.418949,0.910161212 L42.418949,4.91016121 L33.0422118,4.91016121 L33.0422118,0.910161212 L42.418949,0.910161212 Z" id="形状结合"></path>
                </g>
            </g>
        </g>
    </g>
</svg>