<?xml version="1.0" encoding="UTF-8"?>
<svg width="55px" height="55px" viewBox="0 0 55 55" version="1.1" xmlns="http://www.w3.org/2000/svg" xmlns:xlink="http://www.w3.org/1999/xlink">
    <title>编组备份 2</title>
    <defs>
        <filter x="-6.2%" y="-6.2%" width="112.5%" height="112.5%" filterUnits="objectBoundingBox" id="filter-1">
            <feGaussianBlur stdDeviation="1" in="SourceGraphic"></feGaussianBlur>
        </filter>
        <linearGradient x1="25.4780582%" y1="6.87348003%" x2="80.4780542%" y2="88.43375%" id="linearGradient-2">
            <stop stop-color="#00A2E6" offset="0%"></stop>
            <stop stop-color="#017EFF" offset="100%"></stop>
        </linearGradient>
        <filter id="filter-3">
            <feColorMatrix in="SourceGraphic" type="matrix" values="0 0 0 0 1.000000 0 0 0 0 1.000000 0 0 0 0 1.000000 0 0 0 1.000000 0"></feColorMatrix>
        </filter>
        <filter x="-46.2%" y="-46.2%" width="192.3%" height="192.3%" filterUnits="objectBoundingBox" id="filter-4">
            <feOffset dx="2" dy="2" in="SourceAlpha" result="shadowOffsetOuter1"></feOffset>
            <feGaussianBlur stdDeviation="2" in="shadowOffsetOuter1" result="shadowBlurOuter1"></feGaussianBlur>
            <feColorMatrix values="0 0 0 0 0.0558889303   0 0 0 0 0.298015873   0 0 0 0 0.481459466  0 0 0 0.5 0" type="matrix" in="shadowBlurOuter1" result="shadowMatrixOuter1"></feColorMatrix>
            <feMerge>
                <feMergeNode in="shadowMatrixOuter1"></feMergeNode>
                <feMergeNode in="SourceGraphic"></feMergeNode>
            </feMerge>
        </filter>
    </defs>
    <g id="木林森PDA" stroke="none" stroke-width="1" fill="none" fill-rule="evenodd">
        <g id="配送作业" transform="translate(-53.000000, -798.000000)">
            <g id="编组备份-2" transform="translate(54.000000, 799.000000)">
                <rect id="矩形" fill="#0686F9" opacity="0.400000006" filter="url(#filter-1)" x="3" y="3" width="48" height="48" rx="4"></rect>
                <rect id="矩形" stroke-opacity="0.499344406" stroke="#FFFFFF" fill="url(#linearGradient-2)" x="0" y="0" width="48" height="48" rx="4"></rect>
                <g filter="url(#filter-3)" id="编组-8备份">
                    <g filter="url(#filter-4)" transform="translate(11.000000, 11.000000)">
                        <path d="M22.3116667,2.84217094e-14 L25.6666667,7.3516667 L25.6666667,25.6666667 L-8.52651283e-14,25.6666667 L-8.52651283e-14,7.44333335 L3.355,2.84217094e-14 L22.3116667,2.84217094e-14 Z M19.1817414,17.6754398 L6.48492528,17.6754398 L12.0484081,22.4587731 L12.0484081,20.0671064 L19.1817414,20.0671064 L19.1817414,17.6754398 Z M13.6182586,10.4099202 L13.6182586,12.8015868 L6.48492528,12.8015868 L6.48492528,15.1932535 L19.1817414,15.1932535 L13.6182586,10.4099202 Z M20.1666667,2.1816667 L5.5,2.1816667 L3.20833335,7.33333335 L22.4583333,7.33333335 L20.1666667,2.1816667 Z" id="形状结合" fill="#FFFFFF" fill-rule="nonzero"></path>
                    </g>
                </g>
            </g>
        </g>
    </g>
</svg>