<?xml version="1.0" encoding="UTF-8"?>
<svg width="55px" height="55px" viewBox="0 0 55 55" version="1.1" xmlns="http://www.w3.org/2000/svg" xmlns:xlink="http://www.w3.org/1999/xlink">
    <title>编组</title>
    <defs>
        <filter x="-6.2%" y="-6.2%" width="112.5%" height="112.5%" filterUnits="objectBoundingBox" id="filter-1">
            <feGaussianBlur stdDeviation="1" in="SourceGraphic"></feGaussianBlur>
        </filter>
        <linearGradient x1="15.0118901%" y1="0%" x2="95.8412339%" y2="100%" id="linearGradient-2">
            <stop stop-color="#23D4E8" offset="0%"></stop>
            <stop stop-color="#01C6FD" offset="100%"></stop>
        </linearGradient>
        <path d="M17,12 L17,30 L18.5,30 L18.5,33 L17,33 L17,36 L14,36 L14,33 L12,33 L12,30 L14,30 L14,12 L17,12 Z M26,12 L26,15 L27.5,15 L27.5,18 L26,18 L26,36 L23,36 L23,18 L21,18 L21,15 L23,15 L23,12 L26,12 Z M35,12 L35,30 L36.5,30 L36.5,33 L35,33 L35,36 L32,36 L32,33 L30,33 L30,30 L32,30 L32,12 L35,12 Z" id="path-3"></path>
        <filter x="-8.2%" y="-12.5%" width="132.7%" height="133.3%" filterUnits="objectBoundingBox" id="filter-4">
            <feOffset dx="2" dy="1" in="SourceAlpha" result="shadowOffsetOuter1"></feOffset>
            <feGaussianBlur stdDeviation="1" in="shadowOffsetOuter1" result="shadowBlurOuter1"></feGaussianBlur>
            <feColorMatrix values="0 0 0 0 0.062516823   0 0 0 0 0.723192843   0 0 0 0 0.84168365  0 0 0 1 0" type="matrix" in="shadowBlurOuter1"></feColorMatrix>
        </filter>
    </defs>
    <g id="木林森PDA" stroke="none" stroke-width="1" fill="none" fill-rule="evenodd">
        <g id="配送作业" transform="translate(-53.000000, -360.000000)">
            <g id="编组" transform="translate(54.000000, 361.000000)">
                <rect id="矩形" fill="#3BB3D5" opacity="0.400000006" filter="url(#filter-1)" x="3" y="3" width="48" height="48" rx="4"></rect>
                <rect id="矩形" stroke-opacity="0.49808785" stroke="#FFFFFF" fill="url(#linearGradient-2)" x="0" y="0" width="48" height="48" rx="4"></rect>
                <g id="形状结合" fill-rule="nonzero">
                    <use fill="black" fill-opacity="1" filter="url(#filter-4)" xlink:href="#path-3"></use>
                    <use fill="#FFFFFF" xlink:href="#path-3"></use>
                </g>
            </g>
        </g>
    </g>
</svg>