<?xml version="1.0" encoding="UTF-8"?>
<svg width="55px" height="55px" viewBox="0 0 55 55" version="1.1" xmlns="http://www.w3.org/2000/svg" xmlns:xlink="http://www.w3.org/1999/xlink">
    <title>编组备份</title>
    <defs>
        <filter x="-6.2%" y="-6.2%" width="112.5%" height="112.5%" filterUnits="objectBoundingBox" id="filter-1">
            <feGaussianBlur stdDeviation="1" in="SourceGraphic"></feGaussianBlur>
        </filter>
        <linearGradient x1="15.0118901%" y1="0%" x2="95.8412339%" y2="100%" id="linearGradient-2">
            <stop stop-color="#C87EFF" offset="0%"></stop>
            <stop stop-color="#B755FF" offset="100%"></stop>
        </linearGradient>
        <filter x="-46.2%" y="-46.2%" width="192.3%" height="192.3%" filterUnits="objectBoundingBox" id="filter-3">
            <feOffset dx="0" dy="2" in="SourceAlpha" result="shadowOffsetOuter1"></feOffset>
            <feGaussianBlur stdDeviation="2" in="shadowOffsetOuter1" result="shadowBlurOuter1"></feGaussianBlur>
            <feColorMatrix values="0 0 0 0 0.532587531   0 0 0 0 0.209489044   0 0 0 0 0.771399457  0 0 0 1 0" type="matrix" in="shadowBlurOuter1" result="shadowMatrixOuter1"></feColorMatrix>
            <feMerge>
                <feMergeNode in="shadowMatrixOuter1"></feMergeNode>
                <feMergeNode in="SourceGraphic"></feMergeNode>
            </feMerge>
        </filter>
    </defs>
    <g id="木林森PDA" stroke="none" stroke-width="1" fill="none" fill-rule="evenodd">
        <g id="配送作业" transform="translate(-53.000000, -652.000000)">
            <g id="编组备份" transform="translate(54.000000, 653.000000)">
                <rect id="矩形" fill="#BB5DFF" opacity="0.400000006" filter="url(#filter-1)" x="3" y="3" width="48" height="48" rx="4"></rect>
                <rect id="矩形" stroke-opacity="0.49808785" stroke="#FFFFFF" fill="url(#linearGradient-2)" x="0" y="0" width="48" height="48" rx="4"></rect>
                <g id="编组-8备份" filter="url(#filter-3)" transform="translate(11.144791, 10.800000)" fill="#FFFFFF" fill-rule="nonzero">
                    <path d="M22.3116667,4.97379915e-14 L25.6666667,7.3516667 L25.6666667,25.6666667 L4.97379915e-14,25.6666667 L4.97379915e-14,7.44333335 L3.355,4.97379915e-14 L22.3116667,4.97379915e-14 Z M14.5383333,11.165 L11.1466667,11.165 L11.1466667,16.2983333 L7.7366667,16.2983333 L12.8333333,21.4316667 L17.93,16.2983333 L14.5383333,16.2983333 L14.5383333,11.165 Z M20.1666667,2.1816667 L5.5,2.1816667 L3.20833335,7.33333335 L22.4583333,7.33333335 L20.1666667,2.1816667 Z" id="形状结合"></path>
                </g>
            </g>
        </g>
    </g>
</svg>