<?xml version="1.0" encoding="UTF-8"?>
<svg width="55px" height="55px" viewBox="0 0 55 55" version="1.1" xmlns="http://www.w3.org/2000/svg" xmlns:xlink="http://www.w3.org/1999/xlink">
    <title>编组 4</title>
    <defs>
        <linearGradient x1="25.4780582%" y1="6.87348003%" x2="80.4780542%" y2="88.43375%" id="linearGradient-1">
            <stop stop-color="#D0742C" offset="0%"></stop>
            <stop stop-color="#FC9240" offset="100%"></stop>
        </linearGradient>
        <filter x="-6.2%" y="-6.2%" width="112.5%" height="112.5%" filterUnits="objectBoundingBox" id="filter-2">
            <feGaussianBlur stdDeviation="1" in="SourceGraphic"></feGaussianBlur>
        </filter>
        <linearGradient x1="25.4780582%" y1="6.87348003%" x2="80.4780542%" y2="88.43375%" id="linearGradient-3">
            <stop stop-color="#FF9E53" offset="0%"></stop>
            <stop stop-color="#FC9240" offset="100%"></stop>
        </linearGradient>
        <path d="M24.5083379,9 L32,12.9375905 L32,23.0624095 L31.801,23.154 L39,26.9375905 L39,37.0624095 L30.4916621,41 L23.467,37.308 L15.4916621,41 L8,37.0624095 L8,26.9375905 L16.175,23.154 L16,23.0624095 L16,12.9375905 L24.5083379,9 Z M37.2222222,29.6369797 L32.2693333,31.9291263 L32.2693333,38.2993249 L37.2222222,36.0071784 L37.2222222,29.6369797 Z M22.2222222,29.6369797 L17.2693333,31.9291263 L17.2693333,38.2993249 L22.2222222,36.0071784 L22.2222222,29.6369797 Z M31.4557037,24.9013769 L26.8506667,27.0326513 L30.5437037,28.9732416 L35.1487407,26.8419672 L31.4557037,24.9013769 Z M16.4557037,24.9013769 L11.8506667,27.0326513 L15.5437037,28.9732416 L20.1487407,26.8419672 L16.4557037,24.9013769 Z M30.2222222,15.6369797 L25.2693333,17.9291263 L25.2693333,24.2993249 L30.2222222,22.0071784 L30.2222222,15.6369797 Z M24.4557037,10.9013769 L19.8506667,13.0326513 L23.5437037,14.9732416 L28.1487407,12.8419672 L24.4557037,10.9013769 Z" id="path-4"></path>
        <filter x="-6.5%" y="-6.2%" width="125.8%" height="125.0%" filterUnits="objectBoundingBox" id="filter-5">
            <feOffset dx="2" dy="2" in="SourceAlpha" result="shadowOffsetOuter1"></feOffset>
            <feGaussianBlur stdDeviation="1" in="shadowOffsetOuter1" result="shadowBlurOuter1"></feGaussianBlur>
            <feColorMatrix values="0 0 0 0 0.828238225   0 0 0 0 0.452656785   0 0 0 0 0.161765278  0 0 0 1 0" type="matrix" in="shadowBlurOuter1"></feColorMatrix>
        </filter>
    </defs>
    <g id="木林森PDA" stroke="none" stroke-width="1" fill="none" fill-rule="evenodd">
        <g id="配送作业" transform="translate(-53.000000, -214.000000)">
            <g id="编组-4" transform="translate(54.000000, 215.000000)">
                <rect id="矩形" fill="url(#linearGradient-1)" opacity="0.400000006" filter="url(#filter-2)" x="3" y="3" width="48" height="48" rx="4"></rect>
                <rect id="矩形" stroke-opacity="0.495055726" stroke="#FFFFFF" fill="url(#linearGradient-3)" x="0" y="0" width="48" height="48" rx="4"></rect>
                <g id="形状结合">
                    <use fill="black" fill-opacity="1" filter="url(#filter-5)" xlink:href="#path-4"></use>
                    <use fill="#FFFFFF" fill-rule="evenodd" xlink:href="#path-4"></use>
                </g>
            </g>
        </g>
    </g>
</svg>