<?xml version="1.0" encoding="UTF-8"?>
<svg width="55px" height="55px" viewBox="0 0 55 55" version="1.1" xmlns="http://www.w3.org/2000/svg" xmlns:xlink="http://www.w3.org/1999/xlink">
    <title>编组 5备份</title>
    <defs>
        <filter x="-6.2%" y="-6.2%" width="112.5%" height="112.5%" filterUnits="objectBoundingBox" id="filter-1">
            <feGaussianBlur stdDeviation="1" in="SourceGraphic"></feGaussianBlur>
        </filter>
        <linearGradient x1="25.4780582%" y1="6.87348003%" x2="80.4780542%" y2="88.43375%" id="linearGradient-2">
            <stop stop-color="#FF9A6C" offset="0%"></stop>
            <stop stop-color="#FD8249" offset="100%"></stop>
        </linearGradient>
        <filter x="-26.7%" y="-30.8%" width="153.3%" height="161.5%" filterUnits="objectBoundingBox" id="filter-3">
            <feOffset dx="0" dy="2" in="SourceAlpha" result="shadowOffsetOuter1"></feOffset>
            <feGaussianBlur stdDeviation="1" in="shadowOffsetOuter1" result="shadowBlurOuter1"></feGaussianBlur>
            <feColorMatrix values="0 0 0 0 0.830899004   0 0 0 0 0.428127718   0 0 0 0 0.239675098  0 0 0 1 0" type="matrix" in="shadowBlurOuter1" result="shadowMatrixOuter1"></feColorMatrix>
            <feMerge>
                <feMergeNode in="shadowMatrixOuter1"></feMergeNode>
                <feMergeNode in="SourceGraphic"></feMergeNode>
            </feMerge>
        </filter>
    </defs>
    <g id="木林森PDA" stroke="none" stroke-width="1" fill="none" fill-rule="evenodd">
        <g id="配送作业" transform="translate(-393.000000, -506.000000)">
            <g id="编组-5备份" transform="translate(394.000000, 507.000000)">
                <rect id="矩形" fill="#ED7E4B" opacity="0.400000006" filter="url(#filter-1)" x="3" y="3" width="48" height="48" rx="4"></rect>
                <rect id="矩形" stroke-opacity="0.499344406" stroke="#FFFFFF" fill="url(#linearGradient-2)" x="0" y="0" width="48" height="48" rx="4"></rect>
                <g id="编组-7" filter="url(#filter-3)" transform="translate(9.327531, 11.500000)" fill="#FFFFFF" fill-rule="nonzero">
                    <path d="M4.78343055,13.920907 L5.34493814,16.0164819 L0.561507594,17.5245456 L-1.91846539e-13,15.4289707 L4.78343055,13.920907 Z M24.5615076,13.920907 L29.3449381,15.4289707 L28.7834305,17.5245456 L24,16.0164819 L24.5615076,13.920907 Z M0.561507594,7.92090701 L5.34493814,9.42897075 L4.78343055,11.5245456 L-1.91846539e-13,10.0164819 L0.561507594,7.92090701 Z M28.7834305,7.92090701 L29.3449381,10.0164819 L24.5615076,11.5245456 L24,9.42897075 L28.7834305,7.92090701 Z" id="形状结合"></path>
                    <path d="M6.17217818,14 L23.1724691,14 L23.1724691,21.8887491 L23.1703881,22.1019245 L23.1589352,22.440326 C23.1334509,22.914624 23.069339,23.2934937 22.9336692,23.6783416 L22.8597186,23.8717333 L22.7527012,24.099225 L22.7182745,24.1645779 C22.4337626,24.6931144 22.0243742,25.1271636 21.5046375,25.4466604 L21.304592,25.5610629 L21.167777,25.6291058 L20.9749733,25.7146325 C20.6323086,25.8529416 20.2723508,25.932368 19.8081682,25.9715736 L19.5669891,25.987911 L19.1737296,25.9992646 L10.3009994,25.9999614 L10.087178,25.9979481 L9.74716987,25.9865955 C9.27221312,25.9614061 8.89335644,25.8981396 8.50881745,25.7643543 L8.31560322,25.6914349 L8.05996252,25.5713971 L8.02189747,25.5514241 C7.49119953,25.2694467 7.0544571,24.862793 6.73226571,24.3452812 L6.61685375,24.1460448 L6.54795606,24.0092764 L6.46155427,23.8169931 C6.32140159,23.4742557 6.24090845,23.1141804 6.20119722,22.650197 L6.1846527,22.4091455 L6.17373971,22.052916 L6.17217818,14 Z M20.1724691,17 L9.17146907,17 L9.17292933,22.0033258 L9.18168178,22.2793663 L9.20006569,22.5164682 L9.21469477,22.6267575 L9.24329857,22.6943359 L9.26825359,22.7426065 C9.29411468,22.7906486 9.32429096,22.8280785 9.36345762,22.859342 L9.43884383,22.9073509 L9.49283225,22.9326964 C9.54199214,22.9525387 9.61936619,22.9694654 9.75866294,22.9814551 L9.87527271,22.9894901 L10.1466031,22.9987763 L10.3117627,23 L19.1604365,22.9995272 L19.4388863,22.9908057 L19.6812716,22.9720878 L19.7977443,22.955894 L19.8666117,22.9270684 L19.9154033,22.9021681 C19.9647292,22.8759597 20.002727,22.8458076 20.0340721,22.8072662 L20.0814691,22.734 L20.1065781,22.6814977 C20.1256731,22.6348016 20.1421751,22.5602114 20.1539728,22.4244026 L20.1619062,22.3105468 L20.1712381,22.0417208 L20.1724691,21.8778447 L20.1724691,17 Z M19.257767,0.000789754359 L19.5977794,0.0121441504 C20.0727529,0.037337948 20.4516267,0.100616236 20.8361835,0.234426547 L21.0294067,0.30735959 L21.285052,0.427416491 L21.3231177,0.447392619 C21.8538134,0.729408385 22.2905439,1.13610742 22.6127187,1.65366306 L22.7281242,1.85291583 L22.797015,1.98968947 L22.8834118,2.18198804 C23.0235501,2.52473839 23.1040351,2.88482783 23.1437426,3.34883492 L23.1602857,3.5898991 L23.1717273,3.98130109 L23.1724691,12 L6.17217822,12 L6.17454982,3.89716319 L6.18600229,3.55872295 C6.2114847,3.08439409 6.27559028,2.70550772 6.41124457,2.32064867 L6.48518653,2.12725191 L6.60644251,1.87234983 L6.62662202,1.8343837 C6.91111783,1.30580294 7.32049278,0.871707803 7.84022561,0.552169669 L8.04027008,0.43775193 L8.17708927,0.369697514 L8.36989713,0.284156997 C8.71257642,0.145822629 9.07255099,0.0663814026 9.53675306,0.0271686365 L9.77794219,0.0108282147 L10.1358398,7.10542736e-15 L19.257767,0.000789754359 Z M10.1845085,2.99921025 L9.90606296,3.00793277 L9.66370309,3.02665021 L9.54726571,3.04283589 L9.47840249,3.07166342 L9.4296118,3.09656675 C9.3802843,3.12277976 9.34227932,3.1529429 9.31092432,3.19150409 L9.26749627,3.25582053 L9.2383879,3.31734702 C9.21927948,3.36408241 9.20276959,3.43871694 9.19096781,3.57458284 L9.18303221,3.68848398 L9.17373966,3.94674645 L9.17146907,9 L20.1724691,9 L20.1720086,3.99574807 L20.1632558,3.71966013 L20.144865,3.48247016 L20.1302104,3.37208315 L20.1015998,3.30448131 L20.0766429,3.2562004 C20.0507698,3.20812918 20.0205829,3.17067997 19.9814098,3.13940485 L19.9060186,3.09138394 L19.8520382,3.06603848 C19.8028919,3.04619889 19.7255334,3.02927333 19.5862545,3.01728377 L19.4696586,3.00924871 L19.1904691,3 L10.1845085,2.99921025 Z" id="形状"></path>
                </g>
            </g>
        </g>
    </g>
</svg>