<?xml version="1.0" encoding="UTF-8"?>
<svg width="151px" height="150px" viewBox="0 0 151 150" version="1.1" xmlns="http://www.w3.org/2000/svg" xmlns:xlink="http://www.w3.org/1999/xlink">
    <title>散货上架</title>
    <defs>
        <linearGradient x1="8.21184995%" y1="6.07257208%" x2="95.3673311%" y2="95.8505766%" id="linearGradient-1">
            <stop stop-color="#FFFFFF" offset="0%"></stop>
            <stop stop-color="#FFF8EB" offset="100%"></stop>
        </linearGradient>
    </defs>
    <g id="手持PDA" stroke="none" stroke-width="1" fill="none" fill-rule="evenodd">
        <g id="扫码出入库" transform="translate(-148.000000, -472.000000)">
            <g id="散货上架" transform="translate(148.500000, 472.000000)">
                <circle id="椭圆形备份" fill="#FFB725" cx="75" cy="75" r="75"></circle>
                <g id="编组-10" transform="translate(37.000000, 30.500000)" fill="url(#linearGradient-1)">
                    <path d="M32.9846741,19.3801815 L32.9846741,38.2281991 L42.4086829,38.2281991 L42.4086829,19.3801815 L51.8326916,19.3801815 L37.6966784,0.532163807 L23.5606651,19.3801815 L32.9846741,19.3801815 Z M18.8480175,9 L18.8480175,13.7126477 L13.2174135,13.7126477 L5.14557309,51.408683 L23.560022,51.408683 L32.9840308,60.8326917 L42.4080395,60.8326917 L51.8320483,51.408683 L70.2471406,51.408683 L62.1753001,13.7120044 L56.544696,13.7120044 L56.544696,9 L65.9687048,9 L65.9687048,9.01865502 L75.3933571,51.408683 L75.3933571,70.2573439 C75.3933571,75.4595254 71.1760327,79.6813527 65.9693483,79.6813527 L9.42400876,79.6813527 C4.21732423,79.6813527 -1.09139364e-11,75.4595254 -1.09139364e-11,70.2573439 L-1.09139364e-11,51.4093263 L9.42400876,9.01929833 L9.42400876,9 L18.8480175,9 Z M42.3850469,40.3406764 L42.3850469,44.3406764 L33.0083098,44.3406764 L33.0083098,40.3406764 L42.3850469,40.3406764 Z" id="形状结合"></path>
                </g>
            </g>
        </g>
    </g>
</svg>