<?xml version="1.0" encoding="UTF-8"?>
<svg width="48px" height="48px" viewBox="0 0 48 48" version="1.1" xmlns="http://www.w3.org/2000/svg" xmlns:xlink="http://www.w3.org/1999/xlink">
    <title>ruku-cangku</title>
    <g id="手持PDA" stroke="none" stroke-width="1" fill="none" fill-rule="evenodd">
        <g id="收货-待收货" transform="translate(-62.000000, -407.000000)">
            <g id="编组-5" transform="translate(32.000000, 262.000000)">
                <g id="ruku-cangku" transform="translate(30.000000, 145.000000)">
                    <circle id="椭圆形" fill="#DCF2FF" cx="24" cy="24" r="24"></circle>
                    <path d="M35.0891397,25.6330011 L35.0891397,35.1861422 C35.0891397,36.1454247 34.3259579,36.9230769 33.3845253,36.9230769 L27.4183748,36.9230769 C26.9476585,36.9230769 26.5660676,36.5342508 26.5660676,36.0546096 L26.5660676,30.8438053 C26.5660676,29.8845227 25.8028857,29.1068706 24.8614531,29.1068706 L23.1568387,29.1068706 C22.2154062,29.1068706 21.4522243,29.8845227 21.4522243,30.8438053 L21.4522243,36.0546096 C21.4522243,36.5342508 21.0706334,36.9230769 20.5999171,36.9230769 L14.6337666,36.9230769 C13.692334,36.9230769 12.9291521,36.1454247 12.9291521,35.1861422 L12.9291521,25.6330011 L23.4585555,16.5549116 C23.7763516,16.2808666 24.2419403,16.2808666 24.5597364,16.5549116 L35.0891397,25.6330011 Z M35.0891397,23.027599 L24.5597364,13.9495095 C24.2419403,13.6754645 23.7763516,13.6754645 23.4585555,13.9495095 L12.9291521,23.027599 L12.9291521,23.0319413 L11.3847715,24.3520117 C10.8438928,24.8143029 10.0376562,24.7423759 9.5838463,24.1913452 L9.53015095,24.1270787 C9.31201273,23.8623627 9.20606676,23.52016 9.23564015,23.1758167 C9.26521355,22.8314733 9.42788146,22.5132233 9.6878278,22.2911386 L15.1451509,17.6257319 C15.1920278,17.5857824 15.239757,17.5501752 15.2900431,17.5180419 L21.8067841,11.899058 C23.0779684,10.8028781 24.9403234,10.8028781 26.2115078,11.899058 L32.7282487,17.5180419 C32.7785349,17.5501752 32.8262641,17.5857824 32.873141,17.6257319 L38.3125656,22.2763747 C38.8533429,22.7387891 38.9239315,23.5603122 38.4702425,24.1114463 L38.4208086,24.172239 C38.2027354,24.4369864 37.8903455,24.6025731 37.5524139,24.632544 C37.2144822,24.6625148 36.8787141,24.5544126 36.6190312,24.3320369 L35.0891397,23.0232566 L35.0891397,23.027599 L35.0891397,23.027599 Z" id="形状" fill="#0F8FFF" fill-rule="nonzero"></path>
                </g>
            </g>
        </g>
    </g>
</svg>