<?xml version="1.0" encoding="UTF-8"?>
<svg width="64px" height="64px" viewBox="0 0 64 64" version="1.1" xmlns="http://www.w3.org/2000/svg" xmlns:xlink="http://www.w3.org/1999/xlink">
    <title>成功</title>
    <g id="手持PDA" stroke="none" stroke-width="1" fill="none" fill-rule="evenodd">
        <g id="入库-无容器上架2" transform="translate(-328.000000, -448.000000)" fill="#FFFFFF" fill-rule="nonzero">
            <g id="成功" transform="translate(328.000000, 448.000000)">
                <path d="M32,0 C49.6736,0 64,14.3264 64,32 C64,49.6736 49.6736,64 32,64 C14.3264,64 0,49.6736 0,32 C0,14.3264 14.3264,0 32,0 Z M32,5 C17.0880588,5 5,17.0880588 5,32 C5,46.9119412 17.0880588,59 32,59 C46.9119412,59 59,46.9119412 59,32 C59,17.0880588 46.9119412,5 32,5 Z M49.292565,19.7292512 C50.2358117,20.7041569 50.2358117,22.2726955 49.292565,23.2476011 L28.9596307,44.2715699 C28.5078212,44.7377229 27.8922927,45 27.2501051,45 C26.6079175,45 25.992389,44.7377229 25.5405794,44.2715699 L15.7082215,34.0772933 C14.7639262,33.1021946 14.7639262,31.532417 15.7082215,30.5573183 C16.1600311,30.0911653 16.7755596,29.8288882 17.4177472,29.8288882 C18.0599348,29.8288882 18.6754633,30.0911653 19.1272728,30.5573183 L26.1181111,37.8166573 C26.7341106,38.4564863 27.741238,38.4652166 28.36778,37.8361586 L28.3836901,37.8199075 L45.8719227,19.7292512 C46.3237934,19.2625966 46.9396641,19 47.5822438,19 C48.2248236,19 48.8406943,19.2625966 49.292565,19.7292512 L49.292565,19.7292512 Z" id="形状"></path>
            </g>
        </g>
    </g>
</svg>